<svg xmlns="http://www.w3.org/2000/svg" width="64.958" height="21.206" viewBox="0 0 64.958 21.206">
  <g id="logo" transform="translate(-774.275 -363.037)">
    <g id="Group_637" data-name="Group 637" transform="translate(774.275 363.037)">
      <path id="Path_1285" data-name="Path 1285" d="M783.1,649.73v.1a2.545,2.545,0,0,1,1.9.864,3.526,3.526,0,0,1,.573,2.176,2.625,2.625,0,0,1-.955,2.35,5.98,5.98,0,0,1-3.2.639q-3.637,0-5.5-.133v-11.46q1.695-.133,4.949-.133a6.529,6.529,0,0,1,3.38.623,2.641,2.641,0,0,1,.938,2.367A3.028,3.028,0,0,1,784.7,649,2.166,2.166,0,0,1,783.1,649.73Zm-3.654-1h1.279a1.149,1.149,0,0,0,.831-.216,1.359,1.359,0,0,0,.2-.88,1.248,1.248,0,0,0-.208-.864,1.29,1.29,0,0,0-.855-.2h-1.246Zm0,4.684h1.329a1.375,1.375,0,0,0,.98-.249,1.59,1.59,0,0,0,.232-1.03,1.625,1.625,0,0,0-.232-1.046,1.407,1.407,0,0,0-1-.249h-1.312Z" transform="translate(-775.926 -644.033)"/>
      <path id="Path_1286" data-name="Path 1286" d="M847.729,644.886v6.727q0,2.741-1.1,3.853a5.21,5.21,0,0,1-3.787,1.113q-2.907,0-4.086-1.113t-1.179-3.853v-6.727h3.6v6.727a3.75,3.75,0,0,0,.3,1.835,1.312,1.312,0,0,0,1.179.457,1.291,1.291,0,0,0,1.162-.457,3.75,3.75,0,0,0,.3-1.835v-6.727Z" transform="translate(-826.702 -644.654)"/>
      <path id="Path_1287" data-name="Path 1287" d="M914.562,655.572h-3.77l-.747-3.4a1.042,1.042,0,0,0-.307-.623,1.127,1.127,0,0,0-.673-.158h-1.113v4.186h-3.538v-11.46q1.695-.166,4.866-.166a6.818,6.818,0,0,1,3.712.764,3.061,3.061,0,0,1,1.121,2.724,2.385,2.385,0,0,1-2.325,2.724v.1a2.037,2.037,0,0,1,1.877,1.794Zm-6.61-6.727H909.2a1.628,1.628,0,0,0,1.038-.233,1.87,1.87,0,0,0,0-1.894,1.629,1.629,0,0,0-1.038-.232h-1.246Z" transform="translate(-881.743 -643.879)"/>
      <path id="Path_1288" data-name="Path 1288" d="M975.643,648.668v6.594h-2.657l-.315-1.179a3.814,3.814,0,0,1-1.287,1,4.131,4.131,0,0,1-1.885.415,3.216,3.216,0,0,1-2.907-1.37,8.754,8.754,0,0,1-.9-4.592q0-3.289,1.213-4.626t4.186-1.337a14.919,14.919,0,0,1,4.069.482l-.266,2.591q-2.525-.033-3.787-.033a1.361,1.361,0,0,0-1.3.581,5.4,5.4,0,0,0-.332,2.342,5.832,5.832,0,0,0,.3,2.308,1.182,1.182,0,0,0,1.163.581,8.454,8.454,0,0,0,1.246-.1v-3.654Z" transform="translate(-932.211 -643.569)"/>
      <path id="Path_1289" data-name="Path 1289" d="M1038.473,653.346l.166,2.541a54.4,54.4,0,0,1-5.963.216,2.685,2.685,0,0,1-1.935-.723,2.49,2.49,0,0,1-.756-1.885v-6.378a2.49,2.49,0,0,1,.756-1.885,2.686,2.686,0,0,1,1.935-.723,54.43,54.43,0,0,1,5.963.216l-.166,2.541h-4.2a.714.714,0,0,0-.5.166.556.556,0,0,0-.183.432v1.113h4.285v2.392h-4.285v1.379a.556.556,0,0,0,.183.432.713.713,0,0,0,.5.166Z" transform="translate(-985.159 -644.344)"/>
      <path id="Path_1290" data-name="Path 1290" d="M1096.708,655.572h-3.77l-.747-3.4a1.04,1.04,0,0,0-.307-.623,1.127,1.127,0,0,0-.673-.158H1090.1v4.186h-3.537v-11.46q1.694-.166,4.866-.166a6.818,6.818,0,0,1,3.712.764,3.061,3.061,0,0,1,1.121,2.724,2.385,2.385,0,0,1-2.325,2.724v.1a2.037,2.037,0,0,1,1.877,1.794Zm-6.611-6.727h1.246a1.627,1.627,0,0,0,1.038-.233,1.87,1.87,0,0,0,0-1.894,1.628,1.628,0,0,0-1.038-.232H1090.1Z" transform="translate(-1031.75 -643.879)"/>
    </g>
    <g id="Group_638" data-name="Group 638" transform="translate(792.716 378.481)">
      <path id="Path_1291" data-name="Path 1291" d="M884.326,735.893l.089.758a5.837,5.837,0,0,1-1.711.21,2.116,2.116,0,0,1-1.76-.646,5.17,5.17,0,0,1,0-4.471,2.116,2.116,0,0,1,1.76-.646,6.308,6.308,0,0,1,1.6.177l-.1.767q-.7-.056-1.5-.056a1.014,1.014,0,0,0-.948.424,4.977,4.977,0,0,0,0,3.139,1.014,1.014,0,0,0,.948.424A12.771,12.771,0,0,0,884.326,735.893Z" transform="translate(-880.436 -731.099)"/>
      <path id="Path_1292" data-name="Path 1292" d="M931.851,737.216h-1.009v-5.569h1.009Z" transform="translate(-921.948 -731.55)"/>
      <path id="Path_1293" data-name="Path 1293" d="M968.35,732.511h-1.719v4.705h-1.017v-4.705h-1.7v-.864h4.439Z" transform="translate(-949.182 -731.55)"/>
      <path id="Path_1294" data-name="Path 1294" d="M1015.968,735.335v1.88h-1.009v-1.9l-1.832-3.672h1.065l1.017,2.163q.056.129.226.67h.065q.169-.541.226-.67l1.017-2.163h1.049Z" transform="translate(-989.714 -731.55)"/>
    </g>
  </g>
</svg>
